<mxfile host="app.diagrams.net" modified="2022-05-18T03:15:29.668Z" agent="5.0 (Windows NT 10.0; Win64; x64) AppleWebKit/537.36 (KHTML, like Gecko) Chrome/101.0.4951.67 Safari/537.36" etag="irMl1OlwUCEbT-4FN1TQ" version="18.0.7" type="github">
  <diagram id="Z5f0bbKns2LF-ZPZqOLF" name="Page-1">
    <mxGraphModel dx="1564" dy="758" grid="1" gridSize="10" guides="1" tooltips="1" connect="1" arrows="1" fold="1" page="1" pageScale="1" pageWidth="1100" pageHeight="850" math="0" shadow="0">
      <root>
        <mxCell id="0" />
        <mxCell id="1" parent="0" />
        <mxCell id="ktpScYCUpY-ZOAlgP3E1-4" value="VPC" style="points=[[0,0],[0.25,0],[0.5,0],[0.75,0],[1,0],[1,0.25],[1,0.5],[1,0.75],[1,1],[0.75,1],[0.5,1],[0.25,1],[0,1],[0,0.75],[0,0.5],[0,0.25]];outlineConnect=0;gradientColor=none;html=1;whiteSpace=wrap;fontSize=12;fontStyle=0;container=1;pointerEvents=0;collapsible=0;recursiveResize=0;shape=mxgraph.aws4.group;grIcon=mxgraph.aws4.group_vpc;strokeColor=#248814;fillColor=none;verticalAlign=top;align=left;spacingLeft=30;fontColor=#AAB7B8;dashed=0;" vertex="1" parent="1">
          <mxGeometry x="70" y="170" width="960" height="620" as="geometry" />
        </mxCell>
        <mxCell id="ktpScYCUpY-ZOAlgP3E1-5" value="Availability Zone" style="fillColor=none;strokeColor=#147EBA;dashed=1;verticalAlign=top;fontStyle=0;fontColor=#147EBA;" vertex="1" parent="ktpScYCUpY-ZOAlgP3E1-4">
          <mxGeometry x="50" y="70" width="360" height="510" as="geometry" />
        </mxCell>
        <mxCell id="ktpScYCUpY-ZOAlgP3E1-6" value="Availability Zone" style="fillColor=none;strokeColor=#147EBA;dashed=1;verticalAlign=top;fontStyle=0;fontColor=#147EBA;" vertex="1" parent="ktpScYCUpY-ZOAlgP3E1-4">
          <mxGeometry x="530" y="70" width="360" height="510" as="geometry" />
        </mxCell>
      </root>
    </mxGraphModel>
  </diagram>
</mxfile>
